<?xml version="1.0" encoding="UTF-8" standalone="no"?>
<svg width="15px" height="12px" viewBox="0 0 12 9" version="1.1" xmlns="http://www.w3.org/2000/svg" xmlns:xlink="http://www.w3.org/1999/xlink">
    <!-- Generator: Sketch 42 (36781) - http://www.bohemiancoding.com/sketch -->
    <title>email</title>
    <desc>Created with Sketch.</desc>
    <defs></defs>
    <g id="Page-1" stroke="none" stroke-width="1" fill="none" fill-rule="evenodd">
        <g id="atoms-in-use-mobile" transform="translate(-900.000000, -297.000000)" fill="#fff">
            <path d="M901.281867,304.353253 L901.281867,299.265524 L905.400621,303.384395 C905.520766,303.504657 905.68368,303.57213 905.853702,303.57213 L905.85545,303.57213 C906.026055,303.571664 906.189435,303.503142 906.309464,303.381948 L910.368903,299.277644 L910.368903,304.353253 L901.281867,304.353253 Z M909.550722,298.281867 L905.851255,302.022237 L902.110885,298.281867 L909.550722,298.281867 Z M911.650769,297.714582 L911.650769,297.640933 C911.650769,297.287022 911.363748,297 911.009836,297 L900.640933,297 C900.287022,297 900,297.287022 900,297.640933 L900,304.994186 C900,305.348098 900.287022,305.63512 900.640933,305.63512 L911.009836,305.63512 C911.363748,305.63512 911.650769,305.348098 911.650769,304.994186 L911.650769,297.714815 L911.650769,297.714582 Z" id="email"></path>
        </g>
    </g>
</svg>
